<svg width="375" height="404" viewBox="0 0 375 404" fill="none" xmlns="http://www.w3.org/2000/svg">
<path opacity="0.1" d="M397 311.58C272.745 239.169 72.3343 324.919 -21 305.863V360.172C-17.3735 370.811 10.7222 385.707 94.0932 360.172C280.075 299.575 373.523 364.142 397 404C396.427 397.331 395.626 369.509 397 311.58Z" fill="#00880D"/>
<path d="M298.367 255.336C298.367 255.336 298.025 252.535 299.276 247.491C299.94 244.689 300.809 241.94 301.873 239.265C303.048 242.497 304 245.805 304.722 249.166C305.263 251.877 305.567 254.629 305.632 257.393C305.632 257.393 304.151 262.809 302.787 264.675C301.423 266.541 300.393 265.61 299.484 263.376C298.574 261.142 298.367 255.336 298.367 255.336Z" fill="#00880D" stroke="#404040" stroke-linecap="round" stroke-linejoin="round"/>
<path d="M294.384 261.125C294.384 261.125 294.042 259.259 294.042 254.964C294.042 250.669 295.167 243.941 295.167 243.941C296.489 246.313 297.557 248.817 298.354 251.413C299.492 255.336 301.54 262.995 301.54 262.995C302.069 260.33 302.792 257.708 303.705 255.15C305.186 251.037 308.831 245.625 308.831 245.625V253.851C308.843 256.872 308.471 259.882 307.723 262.809C307.723 262.809 307.381 264.675 303.051 266.169C298.722 267.662 295.167 265.982 294.384 261.125Z" fill="#00880D" stroke="#404040" stroke-linecap="round" stroke-linejoin="round"/>
<path d="M291.193 268.039C291.193 268.039 289.599 265.982 289.599 261.501C289.618 258.624 289.847 255.751 290.284 252.907C290.284 252.907 290.851 253.28 292.448 255.505C294.046 257.73 297.57 263.536 297.57 263.913C297.57 264.29 297.912 262.229 299.276 259.8C300.64 257.371 304.744 251.574 304.744 251.574C304.744 251.574 305.311 256.804 305.311 259.047C305.311 261.289 305.541 264.463 305.541 264.463C305.541 264.463 307.247 260.168 309.07 257.536C310.303 255.809 311.675 254.184 313.17 252.678C313.17 252.678 313.512 253.977 313.395 257.722C313.278 261.467 311.689 268.368 311.23 269.489C310.771 270.611 309.178 272.853 306.104 273.975C303.03 275.096 297.8 275.88 295.063 274.581C292.327 273.282 291.193 268.039 291.193 268.039Z" fill="#00880D" stroke="#404040" stroke-linecap="round" stroke-linejoin="round"/>
<path d="M289.599 275.139C289.599 275.139 288.69 274.018 286.183 269.16C283.677 264.303 282.542 258.129 282.542 258.129C282.542 258.129 283.906 258.315 286.183 260.557C288.461 262.8 295.275 271.581 295.275 271.581C294.528 269.034 294.38 266.349 294.842 263.735C295.639 259.622 296.665 257.942 296.665 257.942C296.665 257.942 299.055 261.493 299.852 264.294C300.648 267.095 301.558 271.221 301.558 271.221C301.558 271.221 302.696 266.177 304.632 262.631C305.837 260.448 307.331 258.437 309.074 256.652C309.074 256.652 310.1 260.761 309.416 264.311C308.732 267.861 308.048 270.663 308.048 270.663C308.048 270.663 310.554 263.562 312.602 261.882C314.65 260.202 319.097 258.709 319.097 258.709C319.097 258.709 317.278 265.433 315.798 268.42C314.317 271.407 312.152 274.771 312.152 274.771C312.152 274.771 300.757 278.499 289.599 275.139Z" fill="#00880D" stroke="#404040" stroke-linecap="round" stroke-linejoin="round"/>
<path d="M310.979 315.928H291.275L288.318 275.551H313.936L310.979 315.928Z" fill="#404040" stroke="#404040" stroke-linecap="round" stroke-linejoin="round"/>
<path d="M313.732 274.473H288.404C287.718 274.473 287.162 275.029 287.162 275.715V276.296C287.162 276.982 287.718 277.538 288.404 277.538H313.732C314.419 277.538 314.975 276.982 314.975 276.296V275.715C314.975 275.029 314.419 274.473 313.732 274.473Z" fill="#A1A1A1" stroke="#404040" stroke-linecap="round" stroke-linejoin="round"/>
<path d="M255.255 296.021V258.78" stroke="#404040" stroke-linecap="round" stroke-linejoin="round"/>
<path d="M263.444 315.89H247.226L243.75 294.606H266.92L263.444 315.89Z" fill="#404040" stroke="#404040" stroke-linecap="round" stroke-linejoin="round"/>
<path d="M257.524 285.006C257.524 285.006 257.443 280.468 262.723 278.032C268.004 275.596 272.476 279.629 273.987 282.57C274.962 284.5 275.805 286.494 276.509 288.538C276.509 288.538 271.228 284.163 266.437 284.163C263.447 284.178 260.464 284.46 257.524 285.006Z" fill="#00880D" stroke="#404040" stroke-linecap="round" stroke-linejoin="round"/>
<path d="M261.475 284.334L263.748 281.14" stroke="#404040" stroke-linecap="round" stroke-linejoin="round"/>
<path d="M266.437 284.167L269.211 281.898" stroke="#404040" stroke-linecap="round" stroke-linejoin="round"/>
<path d="M254.858 282.028C254.858 282.028 253.562 277.679 247.776 276.962C241.99 276.246 238.967 281.441 238.417 284.702C238.075 286.836 237.876 288.991 237.823 291.152C237.823 291.152 241.537 285.381 246.112 283.929C248.965 283.036 251.891 282.399 254.858 282.028Z" fill="#00880D" stroke="#404040" stroke-linecap="round" stroke-linejoin="round"/>
<path d="M250.888 282.585L247.757 280.23" stroke="#404040" stroke-linecap="round" stroke-linejoin="round"/>
<path d="M246.112 283.929L242.781 282.607" stroke="#404040" stroke-linecap="round" stroke-linejoin="round"/>
<path d="M250.197 270.708C250.197 270.708 249.191 267.333 244.704 266.776C240.218 266.218 237.871 270.252 237.444 272.781C237.174 274.437 237.017 276.109 236.972 277.787C236.972 277.787 239.858 273.312 243.401 272.183C245.618 271.49 247.892 270.996 250.197 270.708Z" fill="#00880D" stroke="#404040" stroke-linecap="round" stroke-linejoin="round"/>
<path d="M247.118 271.139L244.69 269.312" stroke="#404040" stroke-linecap="round" stroke-linejoin="round"/>
<path d="M243.412 272.183L240.827 271.158" stroke="#404040" stroke-linecap="round" stroke-linejoin="round"/>
<path d="M259.073 268.603C259.073 268.603 260.079 265.227 264.569 264.67C269.059 264.113 271.402 268.146 271.829 270.679C272.096 272.335 272.249 274.008 272.29 275.685C272.29 275.685 269.404 271.206 265.861 270.077C263.647 269.384 261.375 268.891 259.073 268.603Z" fill="#00880D" stroke="#404040" stroke-linecap="round" stroke-linejoin="round"/>
<path d="M262.155 269.037L264.584 267.21" stroke="#404040" stroke-linecap="round" stroke-linejoin="round"/>
<path d="M265.861 270.077L268.446 269.052" stroke="#404040" stroke-linecap="round" stroke-linejoin="round"/>
<path d="M256.685 284.587C255.567 284.1 254.325 283.977 253.134 284.234C251.943 284.491 250.862 285.116 250.045 286.02C247.018 289.214 249.54 294.19 251.642 296.79C252.955 298.408 254.359 299.95 255.846 301.41C255.846 301.41 260.889 298.216 262.653 294.603C264.417 290.989 265.253 288.215 262.991 285.775C260.729 283.335 256.685 284.587 256.685 284.587Z" fill="#00880D" stroke="#404040" stroke-linecap="round" stroke-linejoin="round"/>
<path d="M256.685 284.587C256.685 284.587 254.921 294.242 255.426 300.225" stroke="#404040" stroke-linecap="round" stroke-linejoin="round"/>
<path d="M256.18 289.043L257.948 291.903" stroke="#404040" stroke-linecap="round" stroke-linejoin="round"/>
<path d="M255.76 292.322L253.491 295.854" stroke="#404040" stroke-linecap="round" stroke-linejoin="round"/>
<path d="M256.433 286.607L253.491 287.279" stroke="#404040" stroke-linecap="round" stroke-linejoin="round"/>
<path d="M259.073 268.603C259.073 268.603 256.265 269.29 255.426 271.306" stroke="#404040" stroke-linecap="round" stroke-linejoin="round"/>
<path d="M250.197 270.708C250.197 270.708 254.75 271.641 255.255 274.248" stroke="#404040" stroke-linecap="round" stroke-linejoin="round"/>
<path d="M255.341 276.769C255.341 276.769 257.443 272.818 260.384 272.398C263.325 271.979 266.682 274.508 266.682 274.508C266.682 274.508 260.714 278.039 258.612 278.039C257.399 278.055 256.226 277.6 255.341 276.769Z" fill="#00880D" stroke="#404040" stroke-linecap="round" stroke-linejoin="round"/>
<path d="M255.34 276.769C255.34 276.769 253.484 273.913 250.212 273.575C246.94 273.237 243.404 277.85 243.404 277.85C243.404 277.85 244.663 278.693 248.028 278.526C251.393 278.359 255.34 276.769 255.34 276.769Z" fill="#00880D" stroke="#404040" stroke-linecap="round" stroke-linejoin="round"/>
<path d="M255.17 269.962C255.17 269.962 251.385 266.248 251.218 262.564C251.051 258.88 255.593 252.968 255.593 252.968C255.593 252.968 258.367 260.199 258.534 263.225C258.701 266.252 255.17 269.962 255.17 269.962Z" fill="#00880D" stroke="#404040" stroke-linecap="round" stroke-linejoin="round"/>
<path d="M255.255 266.597L253.911 264.666" stroke="#404040" stroke-linecap="round" stroke-linejoin="round"/>
<path d="M255.426 262.145L256.351 260.544" stroke="#404040" stroke-linecap="round" stroke-linejoin="round"/>
<path d="M165.727 157.766C165.727 157.766 168.921 176.637 172.723 184.555C176.525 192.473 177.292 194.752 177.292 194.752C171.18 196.267 164.979 197.393 158.724 198.123C148.986 199.188 145.785 197.516 145.785 197.516L147.032 192.605C147.032 192.605 154.492 195.193 157.229 191.844C159.966 188.494 162.857 176.322 163.299 173.431C163.74 170.539 162.388 158.064 162.388 158.064L165.727 157.766Z" fill="#404040" stroke="#404040" stroke-miterlimit="10"/>
<path d="M148.527 191.099C148.527 191.099 146.872 198.399 146.872 200.683C146.872 202.968 147.142 203.503 148.389 204.336C151.148 206.162 157.063 209.357 162.394 210.119C167.724 210.88 171.68 212.243 172.74 214.075C178.881 224.724 182.788 261.865 182.788 261.865C182.788 261.865 184.763 263.382 191.004 264.447C197.244 265.512 199.22 265.666 199.22 265.666L200.743 275.256C200.743 275.256 195.114 276.018 185.524 276.912C175.934 277.806 169.699 276.912 169.699 276.912L177.457 301.416C179.438 307.652 180.652 315.873 180.652 315.873H100.743C100.743 315.873 109.721 275.24 110.786 270.368C111.851 265.495 112.005 248.296 112.005 248.296L89.1723 249.207C89.1723 249.207 93.2831 224.553 97.2393 214.969C101.196 205.384 103.022 207.056 108.827 206.14C114.631 205.224 124.045 203.249 127.852 200.661C131.659 198.073 133.028 184.224 133.028 184.224L148.527 191.099Z" fill="#00880D" stroke="#404040" stroke-linecap="round" stroke-linejoin="round"/>
<path d="M167.663 272.244C166.56 276.796 168.331 279.853 171.261 281.916L169.683 276.95C169.683 276.95 175.918 277.866 185.508 276.95C195.098 276.034 200.726 275.295 200.726 275.295L199.203 265.705C199.203 265.705 197.228 265.556 190.987 264.486C184.746 263.415 182.771 261.903 182.771 261.903C182.771 261.903 171.057 257.991 167.663 272.244Z" fill="white" stroke="#404040" stroke-linecap="round" stroke-linejoin="round"/>
<path d="M177.441 301.433L169.683 276.928C169.683 276.928 168.463 268.1 168.618 266.582C168.772 265.065 173.181 256.689 173.181 250.752C173.181 244.815 167.856 227.025 167.398 225.795C166.979 224.691 159.568 211.255 158.421 209.181C157.902 209.015 157.383 208.833 156.876 208.629L163.745 227.152L127.372 226.391L121.65 203.31C120.773 203.58 119.851 203.861 118.919 204.082C119.686 207.051 124.988 228.002 124.31 230.97C123.548 234.165 111.983 248.318 111.983 248.318C111.983 248.318 111.828 265.518 110.763 270.39C109.698 275.262 100.721 315.895 100.721 315.895H180.635C180.635 315.895 179.422 307.668 177.441 301.433Z" fill="#404040" stroke="#404040" stroke-linecap="round" stroke-linejoin="round"/>
<path d="M147.032 198.962C147.446 195.927 148.555 191.099 148.555 191.099L133.033 184.246C132.644 187.91 131.946 191.535 130.948 195.083L147.032 198.962Z" fill="white" stroke="#404040" stroke-linecap="round" stroke-linejoin="round"/>
<path d="M165.108 158C165.108 158 165.566 165.455 165.566 170.023C165.566 174.592 166.328 179.001 164.198 184.921C162.068 190.842 159.022 194.969 157.196 195.725C155.369 196.481 150.503 195.725 148.064 194.809C145.625 193.893 133 186.141 133 186.141C133 186.141 136.498 164.379 136.956 162.856C137.323 161.778 137.836 160.755 138.479 159.815L165.108 158Z" fill="white" stroke="#404040" stroke-linecap="round" stroke-linejoin="round"/>
<path d="M160.093 166.12C160.093 166.12 158.873 168.404 159.028 170.385C159.182 172.366 162.984 176.62 162.984 177.381C162.984 178.143 160.854 179.511 158.266 179.511" stroke="#404040" stroke-linecap="round" stroke-linejoin="round"/>
<path d="M156.595 184.555C156.595 184.555 150.199 184.4 147.308 180.444" stroke="#404040" stroke-linecap="round" stroke-linejoin="round"/>
<path d="M145.333 166.898C145.333 166.898 148.985 164.619 152.18 165.242" stroke="#404040" stroke-linecap="round" stroke-linejoin="round"/>
<path d="M160.854 165.071C161.458 164.688 162.17 164.51 162.883 164.565C163.596 164.619 164.272 164.904 164.811 165.375" stroke="#404040" stroke-linecap="round" stroke-linejoin="round"/>
<path d="M151.829 171.637C151.829 172.149 151.702 172.588 151.523 172.884C151.338 173.189 151.152 173.267 151.038 173.267C150.925 173.267 150.738 173.189 150.553 172.884C150.374 172.588 150.247 172.149 150.247 171.637C150.247 171.126 150.374 170.686 150.553 170.391C150.738 170.086 150.925 170.008 151.038 170.008C151.156 170.008 151.342 170.086 151.524 170.384C151.702 170.675 151.829 171.114 151.829 171.637Z" fill="#404040" stroke="#404040"/>
<path d="M162.71 171.279C162.71 171.818 162.602 172.28 162.45 172.588C162.283 172.926 162.145 172.942 162.14 172.942C162.135 172.942 161.996 172.926 161.829 172.588C161.677 172.28 161.569 171.818 161.569 171.279C161.569 170.74 161.678 170.277 161.831 169.967C162 169.625 162.14 169.61 162.14 169.61C162.14 169.61 162.279 169.625 162.448 169.967C162.601 170.277 162.71 170.74 162.71 171.279Z" fill="#404040" stroke="#404040"/>
<path d="M140.764 160.508C140.764 160.508 136.807 184.555 136.2 191.408C135.83 195.459 135.88 199.539 136.349 203.58C136.349 203.58 131.483 200.987 122.202 198.123C112.921 195.259 105.77 190.365 105.77 188.538C105.77 186.712 119.012 161.143 119.012 161.143L140.764 160.508Z" fill="#404040" stroke="#404040" stroke-miterlimit="10"/>
<path d="M126.616 236.45C126.616 236.45 114.289 240.709 109.268 242.078C104.247 243.446 91.7656 244.837 89.1777 249.251C86.5899 253.665 86.4188 258.079 86.5954 261.887C86.772 265.694 90.0937 267.36 92.8305 266.908C95.5674 266.456 105.77 265.082 115.051 258.537C124.332 251.993 132.708 244.688 132.708 244.688L126.616 236.45Z" fill="white" stroke="#404040" stroke-linecap="round" stroke-linejoin="round"/>
<path d="M163.287 213.313H159.938V218.793H163.287V213.313Z" fill="white" stroke="#404040" stroke-linecap="round" stroke-linejoin="round"/>
<path d="M167.095 214.687H163.139V217.424H167.095V214.687Z" fill="white" stroke="#404040" stroke-linecap="round" stroke-linejoin="round"/>
<path d="M159.938 213.313H154.156V223.51H159.938V213.313Z" fill="white" stroke="#404040" stroke-linecap="round" stroke-linejoin="round"/>
<path d="M156.898 260.645C162.688 260.645 167.382 254.615 167.382 247.176C167.382 239.738 162.688 233.707 156.898 233.707C151.108 233.707 146.414 239.738 146.414 247.176C146.414 254.615 151.108 260.645 156.898 260.645Z" stroke="#404040" stroke-linecap="round" stroke-linejoin="round"/>
<path d="M123.857 235.534C123.957 237.938 124.473 240.307 125.38 242.536C126.897 246.338 131.45 249.229 131.45 249.229L137.387 245.885L145.145 243.601C145.145 243.601 149.405 242.078 149.863 241.945C150.321 241.813 161.124 242.552 163.409 242.249C165.693 241.945 167.823 239.49 167.211 238.138C166.598 236.786 163.712 236.157 163.712 236.157C163.712 236.157 163.254 230.832 163.105 230.226C162.956 229.619 166.449 229.768 166.604 226.722C166.758 223.676 165.235 222.616 165.235 222.616C165.235 222.616 165.081 218.809 162.951 217.899C160.821 216.988 158.079 216.243 152.296 217.286C146.513 218.329 141.034 220.045 136.929 224.746C132.824 229.448 130.721 232.333 130.721 232.333L123.857 235.534Z" fill="white" stroke="#404040" stroke-linecap="round" stroke-linejoin="round"/>
<path d="M163.745 236.141C163.745 236.141 158.421 235.23 155.375 235.992" stroke="#404040" stroke-linecap="round" stroke-linejoin="round"/>
<path d="M163.139 230.209C163.139 230.209 157.356 227.776 154.156 228.554" stroke="#404040" stroke-linecap="round" stroke-linejoin="round"/>
<path d="M165.269 222.6C165.269 222.6 159.199 219.709 153.549 221.684" stroke="#404040" stroke-linecap="round" stroke-linejoin="round"/>
<path d="M204.136 226.391C204.136 226.391 212.931 228.631 217.329 241.984" stroke="#404040" stroke-linecap="round" stroke-linejoin="round"/>
<path d="M216.082 215.852C216.082 215.852 218.841 233.106 218.157 242.563" stroke="#404040" stroke-linecap="round" stroke-linejoin="round"/>
<path d="M230.268 220.194C230.268 220.194 221.556 228.239 219.9 242.094" stroke="#404040" stroke-linecap="round" stroke-linejoin="round"/>
<path d="M213.461 211.035C213.461 211.035 211.729 208.43 210.151 209.01C208.572 209.589 207.546 212.05 208.418 213.209C209.29 214.367 211.309 212.773 211.177 213.496C211.044 214.218 208.28 215.521 209.295 217.115C210.311 218.71 212.336 219.14 212.915 217.982C213.494 216.823 213.925 215.377 214.217 216.243C214.51 217.11 213.345 218.848 214.769 219.284C216.193 219.72 218.968 219.72 218.968 218.268C218.968 216.817 217.809 216.679 218.676 216.243C219.542 215.807 220.557 217.838 221.572 216.679C222.588 215.521 223.311 212.05 221.859 211.614C220.408 211.178 220.414 212.337 219.404 211.47C218.394 210.604 220.85 208.866 218.102 207.856C215.354 206.847 212.308 207.707 213.461 211.035Z" fill="white" stroke="#404040" stroke-linecap="round" stroke-linejoin="round"/>
<path d="M228.056 218.765C228.056 218.765 224.982 218.158 224.27 219.698C223.559 221.237 224.59 223.687 226.025 223.886C227.46 224.084 227.758 221.524 228.166 222.136C228.574 222.749 227.565 225.618 229.408 225.999C231.25 226.38 232.989 225.271 232.575 224.046C232.161 222.821 231.438 221.491 232.26 221.899C233.082 222.307 233.496 224.349 234.826 223.626C236.156 222.903 238.087 220.956 237.061 219.935C236.034 218.914 235.118 219.637 235.405 218.715C235.692 217.794 237.861 218.5 237.75 216.966C237.64 215.432 235.687 212.475 234.362 213.192C233.038 213.909 233.855 214.732 232.525 214.847C231.195 214.963 231.697 211.984 229.043 213.225C226.389 214.467 224.877 217.237 228.056 218.765Z" fill="white" stroke="#404040" stroke-linecap="round" stroke-linejoin="round"/>
<path d="M198.828 224.84C198.828 224.84 195.754 224.239 195.043 225.773C194.331 227.307 195.368 229.762 196.797 229.961C198.226 230.159 198.53 227.605 198.944 228.217C199.358 228.83 198.342 231.693 200.185 232.08C202.028 232.466 203.761 231.351 203.347 230.126C202.933 228.901 202.216 227.572 203.032 227.98C203.849 228.388 204.268 230.43 205.598 229.712C206.928 228.995 208.859 227.036 207.833 226.021C206.807 225.006 205.891 225.718 206.178 224.796C206.465 223.875 208.633 224.586 208.523 223.047C208.412 221.507 206.465 218.555 205.135 219.278C203.805 220.001 204.627 220.812 203.297 220.934C201.967 221.055 202.47 218.075 199.816 219.311C197.161 220.547 195.65 223.317 198.828 224.84Z" fill="white" stroke="#404040" stroke-linecap="round" stroke-linejoin="round"/>
<path d="M214.189 242.144C214.189 242.144 213.897 241.278 211.728 240.842C210.645 240.585 209.529 240.489 208.418 240.555C208.418 240.555 207.259 239.832 209.14 238.53L211.022 237.228C210.199 236.707 209.236 236.453 208.263 236.499C207.285 236.614 206.318 236.808 205.372 237.079C205.4 236.221 205.655 235.387 206.11 234.66C206.566 233.933 207.206 233.34 207.965 232.94C210.57 231.638 212.026 232.593 212.026 232.593L208.831 229.701C209.232 229.324 209.717 229.048 210.246 228.897C210.775 228.747 211.333 228.725 211.872 228.835C213.268 229.097 214.596 229.637 215.778 230.424C215.778 230.424 211.436 226.082 211.149 225.508C210.862 224.934 213.753 225.651 215.922 227.097C217.176 227.899 218.218 228.991 218.962 230.281C218.962 230.281 219.249 227.82 220.121 226.374C220.819 225.313 221.644 224.34 222.576 223.477C222.576 223.477 222.289 227.533 222.289 228.686C222.289 229.839 223.216 227.798 225.6 227.136C227.223 226.773 228.91 226.809 230.516 227.24C230.516 227.24 227.206 228.686 226.461 229.701C225.716 230.717 224.728 232.46 224.728 232.46C224.728 232.46 224.585 231.594 227.189 232.03C229.794 232.466 232.828 235.208 232.828 235.208C232.828 235.208 228.778 235.065 227.311 235.788C226.294 236.375 225.408 237.163 224.706 238.105C225.113 237.851 225.568 237.682 226.041 237.607C226.515 237.533 226.999 237.554 227.465 237.669C228.53 238.034 229.55 238.519 230.505 239.115C230.505 239.115 226.599 239.694 224.717 240.566C222.836 241.438 222.256 242.447 222.256 242.447L214.189 242.144Z" fill="#04A459" stroke="#404040" stroke-linecap="round" stroke-linejoin="round"/>
<path d="M223.316 266.428H212.987C210.932 266.428 208.946 265.689 207.39 264.347C205.835 263.005 204.813 261.149 204.511 259.117L201.83 241.013H234.473L231.791 259.117C231.49 261.149 230.468 263.005 228.912 264.347C227.357 265.689 225.37 266.428 223.316 266.428Z" fill="#404040" stroke="#404040" stroke-linecap="round" stroke-linejoin="round"/>
<path d="M234.219 239.639H201.94C201.065 239.639 200.356 240.348 200.356 241.223V241.962C200.356 242.837 201.065 243.546 201.94 243.546H234.219C235.094 243.546 235.803 242.837 235.803 241.962V241.223C235.803 240.348 235.094 239.639 234.219 239.639Z" fill="#A1A1A1" stroke="#404040" stroke-linecap="round" stroke-linejoin="round"/>
<path d="M193.879 264.144C193.879 264.144 191.727 265.363 191.727 270.406C191.727 275.45 197.509 277.712 198.574 278.015C199.639 278.319 210.747 276.647 219.575 274.821C228.404 272.994 231.598 268.431 231.902 265.689C232.205 262.946 230.533 261.125 229.314 262.494C228.095 263.862 228.1 264.469 225.358 266.147C222.615 267.824 222.163 267.973 218.356 267.802C214.548 267.631 206.183 264 205.576 261.87C204.969 259.74 203.921 256.843 201.008 259.431C199.238 261.024 197.656 262.812 196.29 264.762L193.879 264.144Z" fill="white" stroke="#404040" stroke-linecap="round" stroke-linejoin="round"/>
<path d="M201.333 255.012C201.333 255.012 198.292 264.905 199.203 265.666C200.113 266.428 201.642 267.493 203.159 267.647C204.676 267.802 205.443 263.84 206.205 260.645C206.966 257.45 208.335 254.576 206.812 252.578C205.289 250.581 201.791 251.817 201.333 255.012Z" fill="white" stroke="#404040" stroke-linecap="round" stroke-linejoin="round"/>
<path d="M207.728 256.992C207.728 256.992 204.837 268.409 205.444 270.235C206.051 272.062 209.096 273.733 210.619 272.994C212.142 272.255 212.275 269.038 213.207 263.559C214.14 258.079 214.576 257.296 212.142 256.06C209.709 254.824 208.638 255.773 207.728 256.992Z" fill="white" stroke="#404040" stroke-linecap="round" stroke-linejoin="round"/>
<path d="M219.911 261.241C217.952 259.172 214.438 260.331 213.902 263.128C213.224 266.676 212.175 272.674 212.595 273.733C213.207 275.256 219.293 276.625 219.597 274.798C219.9 272.972 220.816 265.666 220.816 263.211C220.773 262.464 220.45 261.761 219.911 261.241Z" fill="white" stroke="#404040" stroke-linecap="round" stroke-linejoin="round"/>
<path d="M120.067 161.418C120.067 161.418 117.026 146.355 117.937 144.225C118.847 142.095 128.895 136.919 142.441 135.854C155.988 134.789 161.009 136.765 161.616 139.507C162.223 142.25 165.727 157.766 165.727 157.766L149.438 160.811L134.678 162.18L119.305 162.941L120.067 161.418Z" fill="white" stroke="#404040" stroke-linecap="round" stroke-linejoin="round"/>
<path d="M134.678 162.18L149.438 160.811L165.726 157.766C165.726 157.766 164.352 151.696 163.177 146.465C146.839 150.653 127.587 152.325 118.549 152.915C119.217 157.203 120.066 161.418 120.066 161.418L119.305 162.941L134.678 162.18Z" fill="#00880D" stroke="#404040" stroke-linecap="round" stroke-linejoin="round"/>
<path d="M104.396 161.269C104.396 161.269 104.087 163.096 105.307 163.096C106.526 163.096 115.2 164.922 136.504 163.245C157.809 161.567 167.547 159.443 173.788 157.617C180.029 155.79 182.01 154.725 181.701 153.357C181.392 151.988 183.224 152.441 181.397 151.983C179.571 151.525 177.744 152.595 176.227 153.048C175.349 153.309 174.486 153.614 173.639 153.964L173.181 151.834H171.355V155.029L169.07 155.939L169.374 153.964L167.547 153.357L166.637 155.636L166.179 156.701L158.725 158.224V155.465L156.44 155.31L155.982 158.505L152.484 159.117L149.135 157.462L147.766 158.395L149.747 159.46L143.81 160.221L140.764 160.524L138.789 157.021L136.808 157.175L138.027 160.221L134.374 160.828L135.285 158.698L132.393 158.24L130.567 160.673L122.048 161.435L124.635 159.305L124.023 157.782L119.156 160.05L118.549 156.397H115.79L116.248 159.156L111.718 156.701L109.892 158.224L112.176 161.418L104.396 161.269Z" fill="white" stroke="#404040" stroke-linecap="round" stroke-linejoin="round"/>
<path d="M52.8722 316H39" stroke="#263238" stroke-linecap="round" stroke-linejoin="round"/>
<path d="M326.923 316H56.1768" stroke="#263238" stroke-linecap="round" stroke-linejoin="round"/>
<path d="M336.892 316H330.219" stroke="#263238" stroke-linecap="round" stroke-linejoin="round"/>
<circle opacity="0.5" cx="-0.5" cy="110.5" r="58.5" fill="#E6F3E7"/>
<circle opacity="0.5" cx="175.5" cy="95.5" r="12.5" fill="#E6F3E7"/>
<path opacity="0.5" d="M300.421 45.4207C275.228 68.5944 273.918 107.59 297.137 132.824C320.356 158.057 359.353 159.437 384.546 136.263L367.049 118.766L332.087 118.735C329.397 118.733 327.378 116.714 327.376 114.025C327.374 111.335 329.389 109.32 332.078 109.322L357.628 109.345L336.766 88.4837L318.613 88.4675C315.923 88.4651 313.904 86.4462 313.902 83.7568C313.9 81.0674 315.915 79.0521 318.604 79.0545L340.792 79.0743L350.886 89.1686L350.866 66.981C350.864 64.2916 352.879 62.2763 355.569 62.2787C358.258 62.2811 360.277 64.2999 360.279 66.9894L360.307 98.5899L391.263 129.546C414.437 104.353 413.057 65.3555 387.824 42.1369C362.59 18.9183 323.594 20.2282 300.421 45.4207Z" fill="#E6F3E7"/>
<path d="M126.363 59.0724L108.041 76.0867L102.467 51.7125L126.363 59.0724Z" fill="#E6F3E7"/>
<rect x="245.557" y="30.1362" width="32.7218" height="32.7218" transform="rotate(106.213 245.557 30.1362)" fill="#E6F3E7"/>
</svg>
