<svg width="24" height="24" viewBox="0 0 24 24" fill="none" xmlns="http://www.w3.org/2000/svg">
<path d="M17 22C18.103 22 19 21.103 19 20V4C19 2.897 18.103 2 17 2H7C5.897 2 5 2.897 5 4V20C5 21.103 5.897 22 7 22H17ZM12 17C12.2652 17 12.5196 17.1054 12.7071 17.2929C12.8946 17.4804 13 17.7348 13 18C13 18.2652 12.8946 18.5196 12.7071 18.7071C12.5196 18.8946 12.2652 19 12 19C11.7348 19 11.4804 18.8946 11.2929 18.7071C11.1054 18.5196 11 18.2652 11 18C11 17.7348 11.1054 17.4804 11.2929 17.2929C11.4804 17.1054 11.7348 17 12 17Z" fill="#E0E0E0"/>
</svg>
