<svg width="118" height="96" viewBox="0 0 118 96" fill="none" xmlns="http://www.w3.org/2000/svg">
<path fill-rule="evenodd" clip-rule="evenodd" d="M61.9753 44.5781C61.9753 56.4631 53.0254 66.0974 41.9846 66.0974C30.9445 66.0974 21.994 56.4631 21.994 44.5781C21.994 32.6938 30.9445 23.0594 41.9846 23.0594C53.0254 23.0594 61.9753 32.6938 61.9753 44.5781Z" fill="#F0A949"/>
<path fill-rule="evenodd" clip-rule="evenodd" d="M41.9854 17.2253C40.5935 17.2253 39.4658 16.0114 39.4658 14.513V2.71224C39.4658 1.21392 40.5935 0 41.9854 0C43.3773 0 44.505 1.21392 44.505 2.71224V14.513C44.505 16.0114 43.3773 17.2253 41.9854 17.2253Z" fill="#F0A949"/>
<path fill-rule="evenodd" clip-rule="evenodd" d="M13.7778 47.5891H2.81461C1.42273 47.5891 0.295044 46.3752 0.295044 44.8769C0.295044 43.3785 1.42273 42.1646 2.81461 42.1646H13.7778C15.1697 42.1646 16.2973 43.3785 16.2973 44.8769C16.2973 46.3752 15.1697 47.5891 13.7778 47.5891Z" fill="#F0A949"/>
<path fill-rule="evenodd" clip-rule="evenodd" d="M22.0402 26.1187C21.3954 26.1187 20.7506 25.8537 20.2583 25.3238L12.5063 16.979C11.5225 15.9206 11.5225 14.2027 12.5063 13.1443C13.4909 12.0845 15.0848 12.0845 16.0693 13.1443L23.8213 21.4891C24.8052 22.5475 24.8052 24.2654 23.8213 25.3238C23.329 25.8537 22.6843 26.1187 22.0402 26.1187Z" fill="#F0A949"/>
<path fill-rule="evenodd" clip-rule="evenodd" d="M14.2875 77.4043C13.6434 77.4043 12.9986 77.1401 12.5063 76.6101C11.5225 75.5517 11.5225 73.8331 12.5063 72.7747L20.2583 64.4299C21.2429 63.3708 22.8368 63.3708 23.8213 64.4299C24.8052 65.4883 24.8052 67.2062 23.8213 68.2653L16.0693 76.6101C15.577 77.1401 14.9323 77.4043 14.2875 77.4043Z" fill="#F0A949"/>
<path fill-rule="evenodd" clip-rule="evenodd" d="M61.9305 26.1187C61.2857 26.1187 60.641 25.8537 60.1494 25.3238C59.1648 24.2654 59.1648 22.5482 60.1494 21.4891L67.9 13.1443C68.8826 12.0845 70.4791 12.0845 71.463 13.1443C72.4469 14.2027 72.4469 15.9199 71.463 16.979L63.7117 25.3238C63.2207 25.8537 62.5753 26.1187 61.9305 26.1187Z" fill="#F0A949"/>
<path fill-rule="evenodd" clip-rule="evenodd" d="M97.6398 52.9459C97.6312 52.9459 97.6225 52.9467 97.6138 52.9467C97.6178 52.7645 97.6398 52.5881 97.6398 52.4045C97.6398 37.9879 86.783 26.3009 73.3906 26.3009C59.9982 26.3009 49.1414 37.9879 49.1414 52.4045C49.1414 52.4218 49.144 52.4383 49.144 52.4549C38.6384 52.9805 30.265 62.2879 30.265 73.7266C30.265 85.5022 39.1327 95.0479 50.0717 95.0479H97.6398C108.44 95.0479 117.195 85.6231 117.195 73.9966C117.195 62.3707 108.44 52.9459 97.6398 52.9459Z" fill="white"/>
</svg>
