<svg width="48" height="48" viewBox="0 0 48 48" fill="none" xmlns="http://www.w3.org/2000/svg">
<path d="M36.6019 7.05749C36.4266 7.05793 36.2543 7.01131 36.1031 6.92249C31.9425 4.69499 28.3453 3.74999 24.0328 3.74999C19.7419 3.74999 15.6675 4.80749 11.9616 6.92249C11.4375 7.21874 10.7916 7.01249 10.4878 6.46874C10.3522 6.2063 10.3217 5.90208 10.4023 5.6179C10.4829 5.33372 10.6687 5.09089 10.9219 4.93874C14.9188 2.67184 19.4378 1.48659 24.0328 1.49999C28.6481 1.49999 32.6794 2.55749 37.1006 4.91999C37.3586 5.06182 37.5507 5.29911 37.6357 5.58094C37.7207 5.86276 37.6918 6.16668 37.5553 6.42749C37.4733 6.61266 37.3398 6.77042 37.1708 6.88208C37.0019 6.99373 36.8044 7.05461 36.6019 7.05749ZM5.59033 18.87C5.36516 18.8684 5.14591 18.7977 4.9622 18.6675C4.72319 18.4899 4.56245 18.2264 4.51384 17.9326C4.46522 17.6388 4.53253 17.3376 4.70158 17.0925C6.84751 13.9425 9.57658 11.4675 12.8288 9.73499C19.6331 6.09374 28.3453 6.06749 35.1713 9.71249C38.4225 11.445 41.1525 13.8975 43.2985 17.025C43.4668 17.2704 43.5337 17.5714 43.4851 17.8649C43.4365 18.1585 43.2762 18.4219 43.0378 18.6C42.9221 18.6864 42.79 18.7482 42.6494 18.7816C42.5089 18.8149 42.3631 18.819 42.2209 18.7937C42.0787 18.7684 41.9432 18.7142 41.8228 18.6344C41.7024 18.5547 41.5997 18.4511 41.521 18.33C39.571 15.495 37.1006 13.2675 34.1747 11.715C27.9553 8.40749 20.0016 8.40749 13.8038 11.7375C10.8563 13.3125 8.38595 15.5625 6.43595 18.3937C6.35187 18.5427 6.22862 18.6659 6.07956 18.7498C5.9305 18.8338 5.76132 18.8753 5.59033 18.87ZM19.1344 46.0312C18.9912 46.0326 18.8493 46.0032 18.7185 45.945C18.5876 45.8867 18.4708 45.8011 18.376 45.6937C16.4906 43.7325 15.4688 42.4687 14.0203 39.75C12.5203 36.9825 11.745 33.6075 11.745 29.985C11.745 23.3025 17.2491 17.8575 24.0113 17.8575C30.7735 17.8575 36.2813 23.3025 36.2813 29.985C36.2855 30.1299 36.2607 30.2743 36.2081 30.4094C36.1556 30.5446 36.0765 30.6678 35.9755 30.7718C35.8745 30.8759 35.7536 30.9586 35.6201 31.015C35.4865 31.0715 35.343 31.1006 35.198 31.1006C35.053 31.1006 34.9095 31.0715 34.7759 31.015C34.6423 30.9586 34.5215 30.8759 34.4205 30.7718C34.3195 30.6678 34.2403 30.5446 34.1878 30.4094C34.1353 30.2743 34.1104 30.1299 34.1147 29.985C34.1147 24.54 29.5847 20.1075 24.016 20.1075C18.4472 20.1075 13.9125 24.54 13.9125 29.985C13.9125 33.225 14.6053 36.2175 15.9272 38.6475C17.3147 41.235 18.271 42.3375 19.9369 44.0925C20.1345 44.3109 20.2439 44.5949 20.2439 44.8894C20.2439 45.1839 20.1345 45.4679 19.9369 45.6862C19.7242 45.9009 19.4365 46.0245 19.1344 46.0312ZM34.6735 41.8687C32.0944 41.8687 29.8191 41.1937 27.9553 39.8662C26.3675 38.7533 25.0703 37.2751 24.1729 35.5561C23.2756 33.8372 22.8044 31.9278 22.7991 29.9887C22.793 29.8426 22.8165 29.6968 22.8683 29.56C22.92 29.4232 22.9988 29.2983 23.1001 29.1928C23.2013 29.0872 23.3228 29.0033 23.4573 28.9459C23.5919 28.8885 23.7366 28.859 23.8828 28.859C24.0291 28.859 24.1738 28.8885 24.3083 28.9459C24.4428 29.0033 24.5644 29.0872 24.6656 29.1928C24.7668 29.2983 24.8457 29.4232 24.8974 29.56C24.9491 29.6968 24.9727 29.8426 24.9666 29.9887C24.9702 31.5638 25.3543 33.1146 26.0863 34.5092C26.8182 35.9038 27.8762 37.101 29.1703 37.9987C30.7088 39.0787 32.5078 39.5925 34.6753 39.5925C35.4302 39.5791 36.1827 39.5038 36.9253 39.3675C37.5103 39.255 38.0738 39.66 38.1816 40.29C38.2365 40.5807 38.1739 40.8814 38.0075 41.126C37.841 41.3707 37.5844 41.5393 37.2938 41.595C36.4305 41.7655 35.5533 41.8559 34.6735 41.865V41.8687ZM30.3169 46.5C30.2217 46.496 30.1273 46.4809 30.0356 46.455C26.5894 45.465 24.3356 44.1375 21.9731 41.73C18.9385 38.6025 17.2706 34.44 17.2706 29.985C17.2706 26.34 20.2613 23.37 23.9447 23.37C27.6281 23.37 30.6197 26.34 30.6197 29.985C30.6197 32.3925 32.6353 34.35 35.1272 34.35C37.6191 34.35 39.6347 32.3925 39.6347 29.985C39.6347 21.5025 32.5913 14.6175 23.9231 14.6175C17.7685 14.6175 12.1341 18.1725 9.59908 23.685C8.75533 25.5075 8.32033 27.645 8.32033 29.985C8.32033 31.74 8.47126 34.5075 9.77158 38.1075C9.98908 38.6925 9.70689 39.345 9.14345 39.5475C9.00955 39.5985 8.86672 39.6219 8.72355 39.6163C8.58037 39.6107 8.43981 39.5762 8.3103 39.5149C8.18078 39.4536 8.065 39.3668 7.9699 39.2596C7.8748 39.1524 7.80235 39.0271 7.75689 38.8912C6.71126 36.0382 6.1756 33.0236 6.17439 29.985C6.17439 27.285 6.67314 24.8287 7.64814 22.695C10.531 16.4137 16.9238 12.345 23.9231 12.345C33.7838 12.345 41.8022 20.2425 41.8022 29.9625C41.8022 33.6075 38.8116 36.5775 35.1272 36.5775C31.4428 36.5775 28.4522 33.6075 28.4522 29.9625C28.4531 27.555 26.4375 25.5937 23.9456 25.5937C21.4538 25.5937 19.4381 27.5512 19.4381 29.9587C19.4381 33.8025 20.8688 37.4062 23.491 40.1062C25.5535 42.2212 27.5222 43.3875 30.5775 44.2687C31.1625 44.4262 31.4878 45.0562 31.336 45.6412C31.2886 45.8787 31.162 46.0931 30.9768 46.2491C30.7917 46.4051 30.559 46.4936 30.3169 46.5Z" fill="white"/>
</svg>
