<svg width="131" height="38" viewBox="0 0 131 38" fill="none" xmlns="http://www.w3.org/2000/svg">
<path d="M118.417 18.276C118.417 18.276 123.833 18.6927 126.75 15.3594C129.667 12.026 129.667 2.02604 129.667 2.02604C129.667 2.02604 119.667 1.60938 116.333 4.10937C113 6.60937 113.833 13.6927 113.833 13.6927" stroke="#04A459" stroke-width="1.66667" stroke-linecap="round" stroke-linejoin="round"/>
<path d="M113 18.6927C113 18.6927 117.658 15.1723 120.5 12.026C123.342 8.87938 124.667 5.77604 124.667 5.77604" stroke="#04A459" stroke-width="1.66667" stroke-linecap="round" stroke-linejoin="round"/>
<path d="M120.5 12.026L120.083 6.60938" stroke="#04A459" stroke-width="1.66667" stroke-linecap="round" stroke-linejoin="round"/>
<path d="M120.5 12.026L124.667 11.6094" stroke="#04A459" stroke-width="1.66667" stroke-linecap="round" stroke-linejoin="round"/>
<path d="M21.312 30H16.832L6.688 14.672V30H2.208V7.632H6.688L16.832 22.992V7.632H21.312V30ZM24.7472 21.072C24.7472 19.28 25.0992 17.6907 25.8032 16.304C26.5286 14.9173 27.4992 13.8507 28.7153 13.104C29.9526 12.3573 31.3286 11.984 32.8433 11.984C34.1659 11.984 35.3179 12.2507 36.2993 12.784C37.3019 13.3173 38.1019 13.9893 38.6993 14.8V12.272H43.2113V30H38.6993V27.408C38.1233 28.24 37.3233 28.9333 36.2993 29.488C35.2966 30.0213 34.1339 30.288 32.8113 30.288C31.3179 30.288 29.9526 29.904 28.7153 29.136C27.4992 28.368 26.5286 27.2907 25.8032 25.904C25.0992 24.496 24.7472 22.8853 24.7472 21.072ZM38.6993 21.136C38.6993 20.048 38.4859 19.12 38.0593 18.352C37.6326 17.5627 37.0566 16.9653 36.3313 16.56C35.6059 16.1333 34.8273 15.92 33.9953 15.92C33.1633 15.92 32.3953 16.1227 31.6912 16.528C30.9873 16.9333 30.4113 17.5307 29.9633 18.32C29.5366 19.088 29.3233 20.0053 29.3233 21.072C29.3233 22.1387 29.5366 23.0773 29.9633 23.888C30.4113 24.6773 30.9873 25.2853 31.6912 25.712C32.4166 26.1387 33.1846 26.352 33.9953 26.352C34.8273 26.352 35.6059 26.1493 36.3313 25.744C37.0566 25.3173 37.6326 24.72 38.0593 23.952C38.4859 23.1627 38.6993 22.224 38.6993 21.136ZM57.5708 12.016C59.6828 12.016 61.3894 12.688 62.6908 14.032C63.9921 15.3547 64.6427 17.2107 64.6427 19.6V30H60.1628V20.208C60.1628 18.8 59.8108 17.7227 59.1068 16.976C58.4028 16.208 57.4428 15.824 56.2268 15.824C54.9894 15.824 54.0081 16.208 53.2828 16.976C52.5787 17.7227 52.2267 18.8 52.2267 20.208V30H47.7467V12.272H52.2267V14.48C52.8241 13.712 53.5814 13.1147 54.4987 12.688C55.4374 12.24 56.4614 12.016 57.5708 12.016ZM67.911 21.072C67.911 19.28 68.263 17.6907 68.967 16.304C69.6923 14.9173 70.6737 13.8507 71.911 13.104C73.1483 12.3573 74.5243 11.984 76.039 11.984C77.191 11.984 78.2897 12.24 79.335 12.752C80.3803 13.2427 81.2123 13.904 81.831 14.736V6.32H86.375V30H81.831V27.376C81.2763 28.2507 80.4977 28.9547 79.495 29.488C78.4923 30.0213 77.3297 30.288 76.007 30.288C74.5137 30.288 73.1483 29.904 71.911 29.136C70.6737 28.368 69.6923 27.2907 68.967 25.904C68.263 24.496 67.911 22.8853 67.911 21.072ZM81.863 21.136C81.863 20.048 81.6497 19.12 81.223 18.352C80.7963 17.5627 80.2203 16.9653 79.495 16.56C78.7697 16.1333 77.991 15.92 77.159 15.92C76.327 15.92 75.559 16.1227 74.855 16.528C74.151 16.9333 73.575 17.5307 73.127 18.32C72.7003 19.088 72.487 20.0053 72.487 21.072C72.487 22.1387 72.7003 23.0773 73.127 23.888C73.575 24.6773 74.151 25.2853 74.855 25.712C75.5803 26.1387 76.3483 26.352 77.159 26.352C77.991 26.352 78.7697 26.1493 79.495 25.744C80.2203 25.3173 80.7963 24.72 81.223 23.952C81.6497 23.1627 81.863 22.224 81.863 21.136ZM107.646 12.272V30H103.135V27.76C102.559 28.528 101.801 29.136 100.863 29.584C99.9452 30.0107 98.9425 30.224 97.8545 30.224C96.4678 30.224 95.2412 29.936 94.1745 29.36C93.1078 28.7627 92.2652 27.8987 91.6465 26.768C91.0492 25.616 90.7505 24.2507 90.7505 22.672V12.272H95.2305V22.032C95.2305 23.44 95.5825 24.528 96.2865 25.296C96.9905 26.0427 97.9505 26.416 99.1665 26.416C100.404 26.416 101.374 26.0427 102.078 25.296C102.783 24.528 103.135 23.44 103.135 22.032V12.272H107.646Z" fill="#00880D"/>
<circle cx="112" cy="28" r="2" fill="#04A459"/>
</svg>
