<svg width="35" height="38" viewBox="0 0 35 38" fill="none" xmlns="http://www.w3.org/2000/svg">
<path fill-rule="evenodd" clip-rule="evenodd" d="M20.8459 12.0253C20.3626 12.5697 20.3626 13.441 20.8459 13.9853L22.8749 16.2253C23.368 16.7589 24.1572 16.7589 24.6503 16.2253L29.4311 10.9473C30.7367 14.1327 30.1186 17.8778 27.8792 20.3501C25.6398 22.8224 22.2475 23.5048 19.3622 22.0633L10.5995 31.7373C9.54898 32.8971 7.84571 32.8971 6.79517 31.7373C5.74463 30.5775 5.74463 28.6971 6.79517 27.5373L15.5579 17.8633C14.2522 14.678 14.8703 10.9328 17.1097 8.46055C19.3491 5.98827 22.7414 5.30589 25.6267 6.74734L20.8586 12.0113L20.8459 12.0253Z" stroke="#C2C2C2" stroke-width="3" stroke-linecap="round" stroke-linejoin="round"/>
</svg>
